<?xml version="1.0" encoding="utf-8"?>
<!-- Generator: Adobe Illustrator 23.0.1, SVG Export Plug-In . SVG Version: 6.00 Build 0)  -->
<svg version="1.1" id="Layer_1" xmlns="http://www.w3.org/2000/svg" xmlns:xlink="http://www.w3.org/1999/xlink" x="0px" y="0px"
	 viewBox="0 0 360 360" style="enable-background:new 0 0 360 360;" xml:space="preserve">
<style type="text/css">
	.st0{fill:#656668;}
	.st1{fill:none;stroke:#000000;stroke-width:5;stroke-miterlimit:10;}
</style>
<g>
	<path class="st0" d="M221.95,145.26c13.25-6.36,22.41-19.9,22.41-35.58c0-21.78-17.66-39.43-39.43-39.43H166.4v12.99h38.52v0.02
		c0.1,0,0.19-0.01,0.29-0.01c14.6,0,26.44,11.84,26.44,26.44c0,14.6-11.84,26.44-26.44,26.44c-0.1,0-0.19-0.01-0.29-0.01v0.02
		h-29.24l0.18,12.99h29.06l22.15,57.54l18.37-0.37L221.95,145.26z"/>
	<path d="M90.93,81h65.52v84.25c0,9.31-2.59,16.45-7.78,21.4c-5.19,4.96-12.57,7.43-22.15,7.43c-6.51,0-13.07-0.97-19.71-2.91
		c-6.64-1.94-12.68-4.58-18.13-7.93v20c2.11,1.19,4.61,2.29,7.51,3.3s6,1.86,9.29,2.57c3.3,0.71,6.72,1.27,10.28,1.68
		c3.56,0.41,7.05,0.61,10.48,0.61c9.14,0,15.91-1.14,22.67-3.6c5.06-1.84,11.54-8.52,14.4-14.4l0.06-123.15H90.93V81z"/>
	<circle class="st1" cx="162.54" cy="141.06" r="116.22"/>
</g>
</svg>
